<svg id="Layer_1" data-name="Layer 1" xmlns="http://www.w3.org/2000/svg" viewBox="0 0 767.89 588.15"><defs><style>.cls-1,.cls-2,.cls-3{fill:#fff;}.cls-2{font-size:110.21px;font-family:Mistral, Mistral;}.cls-3{font-size:44.37px;font-family:Stereo, Stereo;}.cls-4{letter-spacing:-0.05em;}.cls-5{letter-spacing:-0.06em;}.cls-6{letter-spacing:-0.08em;}.cls-7{letter-spacing:-0.03em;}.cls-8{letter-spacing:-0.06em;}.cls-9{letter-spacing:-0.03em;}.cls-10{letter-spacing:-0.04em;}.cls-11{letter-spacing:-0.04em;}</style></defs><title>logo</title><path class="cls-1" d="M799.58,629.4a310.9,310.9,0,0,1-56.53,5.08c-69.61,0-163.53-22-274.13-102.41-11.59-8.43-61.3-58.77-124.52-58.77q-4.11,0-8.29.3,5.46-.51,10.8-.51c58.67,0,105.7,43.77,123,55.45,107.18,72.48,198,92.9,266.33,92.9a319.83,319.83,0,0,0,63.37-6.19v-.13a319.75,319.75,0,0,1-63.37,6.19c-68.3,0-159.1-20.41-266.27-92.87-17.25-11.66-64.3-55.47-123-55.47a115.77,115.77,0,0,0-15.94,1.1,114.47,114.47,0,0,1,18.62-1.52c54.24,0,98.75,37.73,121.31,52.36,101.64,65.92,188.58,85.17,255.47,85.17a325,325,0,0,0,73.21-8.15v-.12A325.56,325.56,0,0,1,726.37,610c-66.86,0-153.78-19.24-255.4-85.15-22.55-14.62-67.09-52.38-121.38-52.38a115.26,115.26,0,0,0-21.38,2l-.57.08a113.17,113.17,0,0,1,24.79-2.73c49.9,0,92.11,32.24,119.5,49.5,95.55,60.19,178.34,78.41,243.56,78.41A328.15,328.15,0,0,0,799.58,589v-.12a328.11,328.11,0,0,1-84.09,10.72c-65.19,0-148-18.22-243.5-78.4-27.39-17.25-69.61-49.52-119.56-49.52a113.77,113.77,0,0,0-26.16,3l-1.16.2a111.9,111.9,0,0,1,30.28-4.17c45.74,0,85.87,27.39,117.57,46.91C562.41,572.71,641,590,704.31,590a330.12,330.12,0,0,0,95.27-13.79v-.11a330.06,330.06,0,0,1-95.27,13.79c-63.31,0-141.86-17.24-231.29-72.3-31.7-19.51-71.85-46.92-117.63-46.92a111.92,111.92,0,0,0-31.33,4.45l-1.36.25a110.56,110.56,0,0,1,35.71-5.92c41.83,0,80.16,23.23,115.58,44.6,83.54,50.43,157.92,66.73,219.18,66.73a331.62,331.62,0,0,0,106.41-17.31v-.11a331.5,331.5,0,0,1-106.41,17.32c-61.24,0-135.6-16.3-219.13-66.71-35.41-21.38-73.76-44.63-115.63-44.63A110.7,110.7,0,0,0,322,475.47l-1.5.29a108.61,108.61,0,0,1,40.88-8c38.28,0,75.13,19.8,113.64,42.63C552.92,556.58,623.19,572,682.23,572a332.64,332.64,0,0,0,117.35-21.27v-.11a332.4,332.4,0,0,1-117.35,21.28c-59,0-129.28-15.37-207.16-61.56-38.51-22.84-75.37-42.65-113.69-42.65a108.8,108.8,0,0,0-41.46,8.24l-1.66.37a106.29,106.29,0,0,1,45.92-10.5c35.18,0,70.87,17.07,111.87,41,72.57,42.33,138.84,56.81,195.56,56.81a333.51,333.51,0,0,0,128-25.63v-.1a333.5,333.5,0,0,1-128,25.64c-56.7,0-123-14.48-195.52-56.8-41-23.92-76.7-41-111.91-41a106.48,106.48,0,0,0-46.34,10.68l-1.78.44c16.82-9.15,33.4-13.35,50.6-13.35,32.6,0,67.45,15,110.42,39.68,67.55,38.78,130,52.38,184.28,52.38,55.61,0,102.73-14.26,138.22-30.36V525C764.1,541.15,717,555.41,661.36,555.41c-54.31,0-116.7-13.6-184.24-52.37-43-24.67-77.83-39.69-110.46-39.69-17.33,0-34,4.25-51,13.52l-1.79.47c17.84-11.16,35.57-16.52,54.79-16.52,30.55,0,64.88,13.51,109.39,38.67C541,535,599.64,547.76,651.51,547.76c59.74,0,110.44-16.91,148.07-35.45v-.1c-37.63,18.54-88.33,35.46-148.07,35.46-51.86,0-110.53-12.75-173.36-48.26-44.52-25.16-78.86-38.68-109.44-38.68-19.33,0-37.15,5.42-55.08,16.69-.6.16-1.21.32-1.82.5,18.5-13.25,37.11-20,58.44-20,29,0,63.11,12.46,108.88,37.93,58.44,32.51,113.55,44.44,163,44.44,63.64,0,117.82-19.78,157.49-40.86v-.09c-39.67,21.08-93.85,40.87-157.49,40.87-49.4,0-104.49-11.92-162.92-44.43-45.77-25.47-79.87-37.94-108.92-37.94-21.42,0-40.1,6.8-58.67,20.15-.65.18-1.29.39-1.94.59,18.85-15.41,38.06-23.77,61.63-23.77,27.94,0,62,11.74,108.89,37.41,54.3,29.74,106,40.88,152.94,40.88,67.3,0,124.86-22.87,166.48-46.6v-.08C758,510.14,700.4,533,633.1,533c-46.94,0-98.61-11.13-152.9-40.86-46.87-25.68-81-37.43-108.93-37.43-23.65,0-42.92,8.41-61.82,23.9l-1.88.61c18.83-17.53,38.36-27.72,64.25-27.72,27.22,0,61.49,11.26,109.37,37.07,50.43,27.18,98.85,37.55,143.36,37.55,70.71,0,131.56-26.16,175-52.62v-.08c-43.47,26.46-104.32,52.63-175,52.63-44.5,0-92.9-10.36-143.32-37.54-47.89-25.82-82.17-37.08-109.41-37.08-26,0-45.53,10.24-64.41,27.84-.65.21-1.3.42-2,.65,18.54-19.65,38.16-31.84,66.47-31.84,26.81,0,61.41,10.94,110.29,36.86,46.81,24.82,92.11,34.45,134.21,34.45,73.87,0,137.91-29.65,183.15-58.93v-.08c-45.23,29.28-109.28,59-183.15,59-42.09,0-87.37-9.64-134.18-34.45C433.37,459,398.75,448,371.93,448c-28.38,0-48,12.25-66.61,32l-1.95.71c18-21.73,37.49-36.12,68.3-36.12,26.62,0,61.71,10.74,111.58,36.74C526.67,504,569,512.9,608.73,512.9c76.78,0,143.93-33.34,190.85-65.51v-.07c-46.92,32.17-114.07,65.52-190.85,65.52-39.73,0-82-8.93-125.45-31.57-49.88-26-85-36.75-111.61-36.75-30.88,0-50.39,14.44-68.41,36.22l-2,.74C318.53,457.72,337.71,441,371.12,441c26.61,0,62.26,10.6,113.16,36.68,40.25,20.63,79.74,28.89,117.17,28.89,79.45,0,149.6-37.21,198.13-72.33v-.07c-48.53,35.12-118.68,72.34-198.13,72.34-37.42,0-76.9-8.26-117.15-28.88C433.41,451.56,397.75,441,371.12,441c-33.47,0-52.67,16.75-69.92,40.56-.66.26-1.31.51-2,.78,16.29-25.76,35-44.9,71.08-44.89,26.74,0,63.05,10.51,115,36.65,37.28,18.76,74.09,26.39,109.27,26.39,81.86,0,154.93-41.26,205-79.4V421c-50.06,38.13-123.14,79.4-205,79.4-35.18,0-72-7.62-109.25-26.38-51.95-26.14-88.25-36.66-115-36.66-36.14,0-54.86,19.19-71.17,45-17.48,7.16-35.47,19-53.57,37.16C192,573.15,112.6,588.9,31.69,590.15v.13c80.93-1.24,160.4-17,214-70.7,18-18.06,36-29.9,53.36-37.06l-.59.94C281.56,491,264.2,503,246.69,520.89c-53.86,55.11-133.16,71.91-215,72.45v.13c81.86-.55,161.19-17.35,215.09-72.49,17.44-17.85,34.74-29.82,51.55-37.34l-.6,1c-16.28,7.87-33,20-49.94,37.68-54,56.36-132.77,74.27-215.21,74.27h-.89v.12h.89c82.45,0,161.3-17.91,215.3-74.31,16.86-17.61,33.52-29.71,49.73-37.58l-.61,1c-15.66,8.23-31.75,20.49-48.1,37.92-53.4,56.91-130.47,76.15-212.31,76.15-1.63,0-3.27,0-4.9-.05v.12c1.63,0,3.27,0,4.9,0,81.86,0,159-19.24,212.4-76.18,16.28-17.36,32.3-29.58,47.89-37.81l-.61,1c-15,8.59-30.49,21-46.26,38.12C197,582.73,121.33,603.2,39.87,603.2c-2.72,0-5.45,0-8.18-.07v.11c2.73,0,5.46.07,8.18.07,81.48,0,157.21-20.47,210.22-78.13,15.71-17.08,31.08-29.42,46.06-38-.2.33-.4.68-.61,1-14.42,8.94-29.22,21.43-44.43,38.31C198.45,585,123.86,606.6,42.63,606.6c-3.63,0-7.28-.05-10.94-.13v.1q5.49.13,10.94.13h0c81.25,0,155.86-21.63,208.55-80.11,15.14-16.81,29.88-29.26,44.23-38.19-.2.35-.41.68-.61,1-13.8,9.3-27.95,21.91-42.59,38.49C199.8,587.29,126.12,610,45,610q-6.61,0-13.31-.2v.1c4.46.13,8.9.21,13.31.21,81.14,0,154.85-22.75,207.3-82.15,14.57-16.51,28.66-29.08,42.39-38.36-.22.36-.43.72-.64,1.08-13.16,9.65-26.66,22.35-40.72,38.62-52.22,60.37-125.15,84.19-206.25,84.19-5.1,0-10.23-.11-15.39-.29v.09q7.74.28,15.39.29c81.11,0,154.08-23.82,206.32-84.22,14-16.19,27.44-28.85,40.53-38.48L293.3,492c-12.52,10-25.36,22.8-38.87,38.74C202.38,592.17,130.08,617,48.92,617q-8.55,0-17.23-.36v.08q8.67.38,17.23.37h0c81.18,0,153.5-24.86,205.57-86.33,13.44-15.86,26.22-28.61,38.67-38.58l-.63,1.07c-11.87,10.35-24.06,23.25-37,38.86-51.9,62.57-123.67,88.45-204.95,88.45q-9.37,0-18.9-.46v.09q9.52.45,18.9.46c81.29,0,153.09-25.9,205-88.49,12.87-15.52,25-28.36,36.8-38.68l-.63,1.09c-11.22,10.7-22.75,23.69-35.13,38.94-51.77,63.75-123.08,90.64-204.54,90.64-6.73,0-13.55-.2-20.42-.57v.09c6.87.36,13.69.56,20.42.56,81.48,0,152.82-26.89,204.6-90.67,12.31-15.16,23.77-28.08,34.92-38.74l-.63,1.09c-10.56,11.05-21.42,24.11-33.25,39-51.61,65-122.54,92.86-204.22,92.86-7.19,0-14.48-.24-21.84-.66v.07c7.36.43,14.65.67,21.84.67h0c81.7,0,152.65-27.89,204.27-92.9,11.75-14.79,22.54-27.78,33-38.78-.2.36-.41.71-.61,1.06-9.91,11.39-20.1,24.55-31.38,39.08-51.45,66.27-122,95.13-204,95.13-7.63,0-15.36-.27-23.18-.76v.07c7.82.49,15.55.76,23.18.76h0c82,0,152.58-28.87,204-95.16,11.2-14.42,21.32-27.49,31.16-38.81l-.6,1c-9.24,11.73-18.76,25-29.5,39.14-51.26,67.59-121.56,97.43-203.81,97.43q-12.06,0-24.47-.86v.07q12.4.84,24.47.85c82.27,0,152.59-29.84,203.86-97.45,10.63-14,20.07-27.15,29.23-38.79-.19.33-.38.66-.56,1-8.58,12.07-17.42,25.38-27.62,39.16-51,69-121.07,99.77-203.65,99.78q-12.68,0-25.73-1V638q13.05,1,25.73,1c82.59,0,152.66-30.82,203.7-99.8,10.06-13.6,18.8-26.73,27.26-38.67-.16.29-.32.58-.49.87-7.89,12.4-16.06,25.78-25.71,39.17C211.43,611,141.61,642.73,58.66,642.73q-13.26,0-27-1.08v.06q13.69,1.06,27,1.07h0c83,0,152.79-31.78,203.56-102.18,9.41-13.05,17.4-26.08,25.11-38.22-7.29,12.86-14.84,26.45-24,39.59-50.43,71.86-120,104.59-203.38,104.59q-13.86,0-28.22-1.2v0q14.35,1.2,28.22,1.21c83.36,0,153-32.75,203.42-104.62,9.44-13.45,17.13-27.38,24.57-40.51l1.76-2.76,1.88-2.61q1-1.26,2-2.49c.74-.83,1.48-1.64,2.21-2.44s1.58-1.55,2.37-2.31l2.48-2.16,2.61-2c1-.68,2-1.35,3-2s1.95-1.16,2.93-1.71,1.83-.95,2.74-1.4c1.18-.53,2.36-1,3.54-1.52s2.39-.88,3.58-1.28,2.44-.72,3.65-1.05,2.55-.58,3.82-.85,2.66-.44,4-.63a116.11,116.11,0,0,1,13.95-.84c63.16,0,112.84,50.3,124.44,58.74C579.46,612.63,673.41,634.6,743.05,634.6a312,312,0,0,0,56.53-5.06ZM319.2,476.18l-.86.36c-.5.13-1,.24-1.48.38l.84-.41Zm-26.77,18.28.62-1,1-.93-.65.88C293.08,493.79,292.75,494.12,292.43,494.46Zm.68-.6c-.22.3-.44.59-.65.89l-.86,1,.6-.92Zm18-14.82c-.56.19-1.11.38-1.67.59l.86-.63,1.66-.53Zm1.14-.66,1.68-.52-.87.5-1.62.56Zm-15,10,.72-.94c.46-.29.92-.58,1.39-.86l-.77.88Zm1.1-.64c-.24.29-.48.57-.73.85l-1.27,1,.72-.94C297.5,488.35,297.92,488.07,298.35,487.77ZM301.7,484c.26-.28.51-.57.76-.85l1.65-.74-.81.79Zm1.34-.55-.8.8-1.51.84.77-.87Zm1.25-1.13,1.59-.71-.81.72-1.57.76Zm.25-.24.77-.75c.57-.23,1.14-.47,1.71-.69l-.87.73Zm-.19.09c-.57.25-1.13.5-1.69.77l.75-.83,1.72-.71Zm-1.85.84-1.71.83c.23-.29.46-.59.7-.88l1.77-.78C303,482.49,302.75,482.77,302.5,483.05Zm-.2.22-.76.85-1.63.86.71-.89Zm-1,1.07-.78.89-1.53.87.71-.9Zm-1,1.12-.78.89c-.48.3-.95.58-1.43.89l.71-.91Zm-.81,1,1.38-.86-.78.79-1.35.93Zm.22-.26.76-.87,1.46-.81-.78.79Zm2.43-1.8,1.41-.77-.86.77-1.29.76Zm.26-.26.78-.78c.51-.26,1-.52,1.54-.76l-.85.74Zm2.56-1.66,1.37-.64-.81.64-1.37.72Zm.29-.26.79-.7,1.56-.65-.86.66Zm1.07-.94.85-.71,1.63-.62-.84.64Zm2.74-1.43,1.59-.57-.88.58-1.51.61Zm.07-.15-1.68.64c.27-.24.54-.46.82-.69l1.72-.59C309.76,479.3,309.47,479.51,309.19,479.73Zm-1.9.72c-.58.22-1.17.46-1.76.7l.79-.75,1.81-.66Zm-1.93.77-1.76.72.74-.8c.61-.24,1.21-.45,1.81-.68Zm-1.91.78-1.8.8.7-.86c.62-.26,1.24-.51,1.85-.74Zm-1.92.85-1.79.81.64-.9,1.86-.78Zm-.16.2c-.24.3-.47.6-.71.89l-1.71.84c.21-.31.43-.61.65-.92Zm-.88,1.1-.72.91-1.62.87.66-.95Zm-.89,1.12c-.23.31-.47.61-.71.92l-1.56.92c.23-.33.46-.65.68-1C298.54,485.83,299.07,485.56,299.6,485.27Zm-.89,1.14-.71.93c-.49.31-1,.64-1.48,1l.67-1Zm-.89,1.17c-.25.31-.49.63-.73.94l-1.38,1,.66-1C296.85,488.21,297.34,487.88,297.82,487.58Zm-.92,1.19-.73,1-1.28,1,.66-1ZM296,490l-.69.92L294.06,492l.67-1Zm-.92,1.23-.72,1-1.08,1,.64-1Zm-.74,1.1.92-.85c-.22.28-.45.55-.67.82s-.57.56-.85.85Zm.26-.35.69-.93,1-.86-.68.82Zm.92-1.23.67-.89,1.19-.92-.75.89Zm2.11-2,1.11-.82-.7.75c-.38.3-.75.61-1.12.92Zm.28-.32c.23-.28.46-.55.7-.82.42-.29.84-.59,1.27-.87l-.81.84Zm2.25-1.88,1.11-.72-.74.68-1.15.84Zm.3-.31.75-.77,1.25-.74-.78.72Zm2.3-1.69,1.16-.68-.72.59-1.15.75Zm.34-.31.83-.74,1.28-.66-.78.62Zm2.48-1.59,1.21-.63-.85.59-1,.59Zm.41-.34.78-.61,1.37-.63-.81.57Zm1.19-.92.82-.63,1.42-.58-.83.57Zm2.61-1.35,1.33-.52-.75.46-1.39.61Zm.46-.3.83-.56,1.49-.52-.9.52Zm2.78-1.24,1.27-.4-.83.42-1.26.46C312.44,478.82,312.72,478.67,313,478.51Zm.49-.28.81-.47,1.5-.42-.84.43Zm2.79-1,1.38-.37-.76.33-1.36.41Zm1-.58-.84.42-1.65.46.87-.48Zm-2,.49-.87.49-1.75.53.91-.56Zm-2,.54c-.3.19-.61.37-.91.57-.56.17-1.13.34-1.69.53l.84-.61Zm-2,.56-.86.62-1.8.62.8-.67Q310.32,478.49,311.25,478.22Zm-2.05.62-.81.68-1.84.66.79-.73Zm-2,.66-.8.75c-.61.22-1.23.44-1.84.68l.72-.78C305.9,479.92,306.54,479.71,307.18,479.5Zm-2.06.7-.72.78-1.89.76c.23-.29.47-.57.7-.85Zm-2,.73-.7.85-1.88.78c.21-.29.42-.59.64-.88C301.8,481.43,302.45,481.17,303.1,480.93Zm-4,1.56c.65-.27,1.29-.52,1.94-.77-.22.29-.43.59-.64.89l-1.89.81C298.72,483.11,298.92,482.8,299.12,482.49Zm-.71,1.12,1.87-.81-.65.91-1.82.86Zm-.71,1.15,1.79-.85-.65.93c-.58.29-1.17.6-1.75.91Zm-.72,1.18c.57-.31,1.14-.61,1.72-.9L298,486c-.56.3-1.12.63-1.67.95C296.57,486.6,296.77,486.27,297,485.94Zm-.73,1.19c.55-.31,1.1-.64,1.65-.94l-.69,1-1.57,1Zm-.73,1.21,1.56-1-.69,1-1.48,1Zm-.73,1.22,1.46-1-.68,1-1.41,1Zm-.75,1.27,1.38-1-.67,1-1.34,1.06Zm-.75,1.28,1.3-1-.69,1-1.23,1.06Zm-.75,1.29c.39-.35.79-.68,1.19-1l-.67,1-1.14,1.08Zm-.77,1.32,1.11-1.06c-.22.34-.44.68-.67,1l-1,1.1C291.36,495.42,291.57,495.07,291.77,494.72Zm-.77,1.34,1-1c-.22.32-.43.65-.64,1l-.93,1.05Zm-.76,1.32c.28-.33.56-.64.85-1-.2.29-.39.59-.58.89l-.81,1Zm-1.79,3.15.24-.43.29-.41C288.8,500,288.62,500.25,288.45,500.53Zm1.21-1.9-.66.93c.15-.28.31-.56.47-.83l.68-.86C290,498.12,289.82,498.37,289.66,498.63Zm.65-.91.19-.3.23-.28Zm1.24-1.72-.67.84.46-.71.67-.77C291.86,495.57,291.71,495.79,291.55,496Zm.76-.95.13-.18.17-.18Zm1.23-1.52-.63.7.48-.66.65-.65Zm.85-.93.14-.17.15-.15ZM295.8,491l-.74.75.53-.64.68-.62Zm.18-.36.6-.71,1-.79-.66.7Zm2.18-1.93-.7.61c.17-.17.33-.35.5-.53l.72-.59Zm1.14-1.11-.88.7c.2-.2.39-.42.58-.62l.92-.67Zm1.35-1.06-.72.56.52-.47.74-.55Zm1.28-1.08-.91.64.58-.55c.31-.19.61-.39.91-.59Zm1.36-.95-.68.48.49-.41.69-.43Zm1.35-1-.9.56.61-.49.94-.55Zm1.64-1c-.28.16-.55.34-.83.51l.39-.29.6-.33Zm1.21-.79-.93.51.67-.48.81-.39Zm1.67-.89-.56.29.23-.14.52-.26Zm-.26,0-1.13.56.72-.51,1.16-.51Zm1.62-.76-.78.36.51-.32.94-.4Zm1.43-.65-.18.09.21-.12.25-.1Zm.12-.18-1.15.46.63-.39,1.2-.44Zm1.84-.74-1.05.42.49-.26c.31-.12.61-.23.92-.33Zm1.61-.61-.44.16.14-.06.32-.11Zm-.2-.06-1.21.43.73-.36,1.2-.38Zm1.75-.57-.78.26.49-.22.74-.21Zm1.75-.67-1.21.35c.21-.09.41-.19.62-.27l1.13-.29Zm1.71-.46-.73.19.45-.16.61-.13Zm-.14-.13-1.42.35.81-.32,1.39-.3Zm2-.45-1.16.26.61-.22,1.07-.2Zm1.87-.38-.65.12.3-.09.57-.09Z" transform="translate(-31.69 -72.54)"/><path class="cls-1" d="M357.77,125.24C218,125.24,104.7,238.53,104.7,378.3S218,631.36,357.77,631.36,610.82,518.06,610.82,378.3,497.53,125.24,357.77,125.24ZM536.34,556.87a252.54,252.54,0,1,1,74-178.57A251.72,251.72,0,0,1,536.34,556.87ZM367.16,464.74l-.54-4.76a83.52,83.52,0,0,1-8.86.48,81.8,81.8,0,0,1-45.51-13.75L310,450.06c-1.53-1-3-2.1-4.47-3.21l-.47.62a86.59,86.59,0,0,0,52.69,17.78A88.4,88.4,0,0,0,367.16,464.74Zm-28.05,7.9.44-2.28a94.55,94.55,0,0,1-9.38-2.35l-.67,2.2A96.49,96.49,0,0,0,339.11,472.64ZM421.36,442a89.82,89.82,0,0,1-41.51,23.62l.21.85a91,91,0,0,0,48.35-31l-.69-.56A90.94,90.94,0,0,1,421.36,442Zm-26.81,44.49.16.49a113.74,113.74,0,0,0,16.52-7.11l-.24-.46A114.23,114.23,0,0,1,394.55,486.44Zm-111.9-96.78a75.94,75.94,0,0,0,31.05,50.5l.3-.42a77.29,77.29,0,0,1-9.59-8.09,75.32,75.32,0,0,1-21.25-42.07ZM326,298.89l1.86,4.74a80.22,80.22,0,0,1,77.58,10.68l3.06-4.05A85.27,85.27,0,0,0,326,298.89Zm92.77,28.17,3.91-3.25a85,85,0,0,0-9.5-9.75l-3.35,3.83q2,1.77,3.93,3.67Q416.38,324.2,418.76,327.06Zm-83.42,123.3-.14.47a76,76,0,0,0,61.27-7.17l-.27-.45a75.65,75.65,0,0,1-60.86,7.15Zm22.43,42.15a113.84,113.84,0,0,1-41.12-7.64l.92-2.38a111.33,111.33,0,0,1-29.11-16.66l-1.59,2a115.74,115.74,0,0,1-9.86-8.78,114.06,114.06,0,0,1-8.55-9.57l2-1.59a111.79,111.79,0,0,1-17.14-109.15l-2.39-.9a114.71,114.71,0,0,1,38.51-51.08l-.31-.42a114.71,114.71,0,0,0,81.3,206l-.05-.52A114.32,114.32,0,0,1,357.77,492.51ZM343.69,303.65l.1.51a75.37,75.37,0,0,1,76.73,32.28l.43-.28a75.87,75.87,0,0,0-63.19-33.83A76.71,76.71,0,0,0,343.69,303.65Zm80.73,110a76.14,76.14,0,0,1-13.31,18c-.23.23-.48.45-.72.68l.36.37a76.12,76.12,0,0,0,14.13-18.82Zm-133.6-71.26a76.09,76.09,0,0,0-3.93,8.55l.48.18a74.92,74.92,0,0,1,3.91-8.48Zm111.31,102,2.86,4.21a85.41,85.41,0,0,0,18.28-16.81l-3.95-3.2c-1.75,2.15-3.61,4.22-5.57,6.19A81.16,81.16,0,0,1,402.13,444.42ZM191.23,637.86a307,307,0,0,0,42.59,22.83l.56-1.27A304.64,304.64,0,0,1,192,636.69ZM160.5,408.59A198.42,198.42,0,0,0,167.65,439l.86-.27a196.86,196.86,0,0,1-7.11-30.3Zm69.17-30.29A128.11,128.11,0,0,0,470.9,438.41l-2.06-1.1a125.76,125.76,0,1,1-3.2-123.69l2-1.2a128.11,128.11,0,0,0-238,65.88ZM426.11,265.39l-.47.77A129.42,129.42,0,0,1,439,275.42l.55-.7A131.1,131.1,0,0,0,426.11,265.39ZM187.77,275.58l3.8,2.3a194.06,194.06,0,0,1,37.36-44.76l-3-3.33a199,199,0,0,1,37-25.93l2.12,3.91a194.29,194.29,0,0,1,192.05,3.86l2.27-3.82a199.44,199.44,0,0,1,75.73,81.46l.8-.4A199.17,199.17,0,0,0,392.6,182c-108.47-19.27-212,53-231.29,161.5a199,199,0,0,0-2.65,21.9l.9.06a202.11,202.11,0,0,1,2.63-21.8A197.92,197.92,0,0,1,187.77,275.58ZM314,316.9a74.92,74.92,0,0,1,18.27-9.59l-.18-.49a75.57,75.57,0,0,0-18.39,9.66Zm-249,153.39,6.54-2.06a299.69,299.69,0,0,1-13.68-89.06H50.91a307.19,307.19,0,0,1,7.78-69.4l6.69,1.54a300.26,300.26,0,0,1,140.41-191.6H190.1q-12.42,8.07-24.27,17.47c-133.22,106-155.26,300-49.24,433.19a313,313,0,0,0,22.68,25.45l1-1a310.06,310.06,0,0,1-22.58-25.34A306.07,306.07,0,0,1,64.93,470.29Zm448.4-64.36a157.39,157.39,0,0,0-11.68-93l-.18.08q-1.89-4.16-4-8.2l-4,2.09a153.41,153.41,0,0,1-47.94,197.24,154.43,154.43,0,0,1-19.26,11.46l1.34,2.68a156.1,156.1,0,0,1-50.7,15.33l.18,1.53A158.13,158.13,0,0,0,513.33,405.93ZM412.71,278.16l.25-.45a114.14,114.14,0,0,0-55.19-14.14H357v.52h.76A113.7,113.7,0,0,1,412.71,278.16Zm40,201.27,6,6.49A148.25,148.25,0,0,0,503.3,348.15l-8.68,1.74a139.45,139.45,0,0,1-41.89,129.54ZM438.18,296.49a114.71,114.71,0,0,0-11.73-10.07l-.31.41a116.2,116.2,0,0,1,11.68,10Zm48.67,104.84a131.1,131.1,0,0,1-76.59,97.22l.35.82A132,132,0,0,0,489.76,377h-.9A131.7,131.7,0,0,1,486.85,401.33Zm-41.58,84.54q-3.64,2.92-7.48,5.61c-3.53,2.46-7.18,4.77-10.94,6.9l4.38,7.7a149.59,149.59,0,0,0,19.58-13.31ZM360,509.53v.91a132.61,132.61,0,0,0,21.36-2.14l-.15-.88A129.76,129.76,0,0,1,360,509.53Zm116.1-187.47A131.53,131.53,0,0,1,487,356.25l.88-.15a132.1,132.1,0,0,0-10.93-34.43Zm-276.7,2.34-8.38,40.3a165.46,165.46,0,0,0,2.19,43.86l4-.73a163.36,163.36,0,0,1,6.18-82.49L199.56,324Zm2.16,65.24-1.53.11a158.18,158.18,0,0,0,38.35,92.19l1.16-1a156.66,156.66,0,0,1-38-91.29Zm.28-71.89,3.77,1.46a160.63,160.63,0,0,1,6.89-15.34L209,302.05A170.83,170.83,0,0,0,201.87,317.75ZM231,434.22l-8.08,3.61a148.82,148.82,0,0,0,23.22,36.41l6.69-5.79a138.17,138.17,0,0,1-8.9-11.42A139.65,139.65,0,0,1,231,434.22Zm76,19.55.49-.74A90.57,90.57,0,0,1,294.05,442q-1.73-1.72-3.34-3.53l-.66.58A91.56,91.56,0,0,0,307,453.77Zm-100.14-85.6,8.31.53a144.64,144.64,0,0,1,1.87-15.31,142.22,142.22,0,0,1,37.39-73.73l-5.06-4.85c2.21-2.31,4.51-4.51,6.86-6.67l-.92-1a151,151,0,0,0-48.45,101ZM244,268.55l1.11,1.06A157.43,157.43,0,0,1,268.11,250c2.32-1.62,4.68-3.16,7.07-4.65l-.8-1.3A158.49,158.49,0,0,0,244,268.55ZM472.76,540.2l.52.72a200.37,200.37,0,0,0,20.8-17l-.6-.66A198.88,198.88,0,0,1,472.76,540.2ZM250.15,453.48c-.33-.47-.63-1-1-1.44l-.75.5a132.57,132.57,0,0,0,27.92,29.91l.56-.71A131.68,131.68,0,0,1,250.15,453.48Zm366.3,90.19a306,306,0,0,1-58,66.89l.91,1.06a307.16,307.16,0,0,0,58.23-67.2Zm-63-131.85c-.08.44-.14.87-.22,1.31a197.57,197.57,0,0,1-40.8,89.77l.69.56a198.5,198.5,0,0,0,41-90.18c.08-.43.14-.87.21-1.3Zm-16.17-1.53A182.37,182.37,0,0,0,389.6,198.83c-99.16-17.62-193.83,48.49-211.46,147.65a181.54,181.54,0,0,0,14,108.4l1.44-.67c-2.18-4.69-4.13-9.5-5.9-14.39l7.92-2.86a172.42,172.42,0,0,1,37.53-177.67L227,253.45a181.33,181.33,0,0,1,53.44-38.54l3.61,7.65a171.57,171.57,0,0,1,103.77-13.84c1.33.24,2.66.49,4,.76l-.68,3.48a168.79,168.79,0,0,1,88.63,282l2.54,2.47a172.85,172.85,0,0,1-88.57,49.52l1.77,8.27A181.37,181.37,0,0,1,277.7,540.54L277,542A182.49,182.49,0,0,0,537.25,410.29ZM330.92,575.12l-.12.9a199.18,199.18,0,0,0,57.53-.5l-.14-.89A197.75,197.75,0,0,1,330.92,575.12ZM265.84,284.79a130.63,130.63,0,0,1,95.23-37.54l0-.9a132,132,0,0,0-95.89,37.78Zm91.87,2.6a90.47,90.47,0,0,0-51.47,16l.07.1c-1.45,1-2.87,2-4.25,3.09l1.59,2.05a88.25,88.25,0,0,1,124.94,17.06l1.38-1a89.73,89.73,0,0,1,13.79,27.16l.84-.25A90.94,90.94,0,0,0,357.71,287.39Zm114.68,86.26a114.37,114.37,0,0,0-6.07-32.53l-.49.16a113.8,113.8,0,0,1,6,32.39ZM357.76,273.41a104.89,104.89,0,1,0,60,190.94l-.52-.75c-2.44,1.71-5,3.3-7.56,4.79l-2.42-4.2a99.17,99.17,0,0,1-104.38-3.37l-2.7,4.05A104.57,104.57,0,0,1,273,438.48l4-2.81a98.7,98.7,0,0,1-18.28-57.37c0-.78,0-1.56,0-2.33l2,0a97.08,97.08,0,0,1,150.76-78.57l1.14-1.68a99.16,99.16,0,0,1,37,45.17l4.51-1.83a104.38,104.38,0,0,1,3.55,68.19l.88.26A104.94,104.94,0,0,0,357.76,273.41ZM262.45,389a95.37,95.37,0,0,0,11.4,36l2-1.15a93,93,0,0,1-11.11-35.14Zm104.34,85.1a95.89,95.89,0,0,0,24.61-5.65l-.81-2.18a93.25,93.25,0,0,1-32.82,5.92A95.16,95.16,0,0,1,343.25,471l-.35,2.3.22,0ZM428.46,352a74.18,74.18,0,0,1,3.34,11.8l.51-.09A76.38,76.38,0,0,0,429,351.8ZM275.6,378.3c0-.65,0-1.29,0-1.93l1.69,0c.06-2.44.24-4.85.51-7.23l-6.45-.74a89.48,89.48,0,0,0-.56,9.88,87,87,0,0,0,4.75,28.41l4.54-1.57A81.93,81.93,0,0,1,275.6,378.3Zm-7.74,5.53-.89.05a90.4,90.4,0,0,0,7.95,32l.8-.36A89.45,89.45,0,0,1,267.86,383.83ZM334.07,229l1.31,8.24a142.77,142.77,0,0,1,47.31.47c1.11.19,2.21.41,3.3.63l-.56,2.88c4.16.84,8.23,1.88,12.23,3.06l3.22-10.81A151.89,151.89,0,0,0,334.07,229Zm-15.51-3.9.38,1.48a155.86,155.86,0,0,1,56.64-3.81l.18-1.53A157.36,157.36,0,0,0,318.56,225.13Zm-77.39,93-.77-.4A132,132,0,0,0,234,424.75l.84-.31a131.42,131.42,0,0,1,6.29-106.35Zm62.18-97.54,1.35,3.81A161.46,161.46,0,0,1,368.23,216l.23-4A165.64,165.64,0,0,0,303.35,220.55ZM357.77,259A119.29,119.29,0,1,0,477.05,378.3,119.29,119.29,0,0,0,357.77,259Zm84,203.27a118.76,118.76,0,1,1,34.79-84A118.39,118.39,0,0,1,441.74,462.28Z" transform="translate(-31.69 -72.54)"/><text class="cls-2" transform="translate(318.59 91.72) scale(1.04 1)">Berdyansk</text><text class="cls-3" transform="translate(501.66 154.07) scale(1.02 1)"><tspan class="cls-4">ph</tspan><tspan class="cls-5" x="48.14" y="0">o</tspan><tspan class="cls-6" x="71.52" y="0">t</tspan><tspan class="cls-7" x="86.74" y="0">o</tspan><tspan class="cls-8" x="111.36" y="0">s</tspan><tspan class="cls-9" x="131.77" y="0">e</tspan><tspan class="cls-4" x="157.11" y="0">r</tspan><tspan class="cls-10" x="170.51" y="0">v</tspan><tspan class="cls-7" x="193.27" y="0">i</tspan><tspan class="cls-11" x="202.54" y="0">c</tspan><tspan x="224.73" y="0">e</tspan></text></svg>